# xmcd CD database file
#
# Track frame offsets:
#	150
#	18310
#	36124
#	59680
#	79184
#	107270
#	126620
#	146201
#	165711
#	207487
#	222123
#	243067
#
# Disc length: 3515 seconds
#
# Revision: 1
# Processed by: cddbd v1.5.2PL0 Copyright (c) Steve Scherf et al.
# Submitted via: CDex 1.51
#
DISCID=ac0db90c
DTITLE=Chris De Burgh - The Storyman
DYEAR=2006
DGENRE=Blues
TTITLE0=The Storyman Theme
TTITLE1=One World
TTITLE2=Leningrad
TTITLE3=My Father´s Eyes
TTITLE4=The Grace Of A Dancer
TTITLE5=Spirit
TTITLE6=The Shadow Of The Mountain
TTITLE7=Raging Storm
TTITLE8=The Mirror Of The Soul
TTITLE9=The Sweetest Kiss Of All
TTITLE10=The Storyman
TTITLE11=My Father´s Eyes (ft. Hani Hussein)
EXTD=YEAR: 2006
EXTT0=
EXTT1=
EXTT2=
EXTT3=
EXTT4=
EXTT5=
EXTT6=
EXTT7=
EXTT8=
EXTT9=
EXTT10=
EXTT11=
PLAYORDER=
